HIERARCHY
ROOT root
{
	OFFSET	0	13.1	24.9
	CHANNELS 6  Xposition Yposition Zposition Xrotation Yrotation Zrotation
	JOINT spine_1
	{
		OFFSET	0	9.99999	0
		CHANNELS 3  Xrotation Yrotation Zrotation
		JOINT spine_2
		{
			OFFSET	0	112	-10
			CHANNELS 3  Xrotation Yrotation Zrotation
			JOINT spine_3
			{
				OFFSET	0	206.5	19.3
				CHANNELS 3  Xrotation Yrotation Zrotation
				JOINT spine_4
				{
					OFFSET	0	110.4	14.6
					CHANNELS 3  Xrotation Yrotation Zrotation
					JOINT neck_1
					{
						OFFSET	0	71.8	-50.3
						CHANNELS 3  Xrotation Yrotation Zrotation
						JOINT neck_2
						{
							OFFSET	0	86.2	-25.8
							CHANNELS 3  Xrotation Yrotation Zrotation
							JOINT head_ee
							{
								OFFSET	0	179.8	-8.7
								CHANNELS 3  Xrotation Yrotation Zrotation
								End Site
								{
									OFFSET	1	0	0
								}
							}
						}
					}
					JOINT left_clavicle
					{
						OFFSET	-43.2	22.4	-70.8
						CHANNELS 3  Xrotation Yrotation Zrotation
						JOINT left_shoulder
						{
							OFFSET	-93.9	-5.79999	48.7
							CHANNELS 3  Xrotation Yrotation Zrotation
							JOINT left_elbow
							{
								OFFSET	-291.4	-30.8	15.2
								CHANNELS 3  Xrotation Yrotation Zrotation
								JOINT left_lowarm_twist
								{
									OFFSET	-110.7	-3.89999	13.6
									CHANNELS 3  Xrotation Yrotation Zrotation
									JOINT left_hand
									{
										OFFSET	-110.7	-3.89999	13.6
										CHANNELS 3  Xrotation Yrotation Zrotation
										JOINT left_ee
										{
											OFFSET	-80.8	-5.10001	12.1
											CHANNELS 3  Xrotation Yrotation Zrotation
											End Site
											{
												OFFSET	1	0	0
											}
										}
									}
								}
							}
						}
					}
					JOINT right_clavicle
					{
						OFFSET	43.2	22.4	-70.8
						CHANNELS 3  Xrotation Yrotation Zrotation
						JOINT right_shoulder
						{
							OFFSET	93.9	-5.79999	48.7
							CHANNELS 3  Xrotation Yrotation Zrotation
							JOINT right_elbow
							{
								OFFSET	291.4	-30.8	15.2
								CHANNELS 3  Xrotation Yrotation Zrotation
								JOINT right_lowarm_twist
								{
									OFFSET	110.7	-3.89999	13.6
									CHANNELS 3  Xrotation Yrotation Zrotation
									JOINT right_hand
									{
										OFFSET	110.7	-3.89999	13.6
										CHANNELS 3  Xrotation Yrotation Zrotation
										JOINT right_ee
										{
											OFFSET	80.8	-5.10001	12.1
											CHANNELS 3  Xrotation Yrotation Zrotation
											End Site
											{
												OFFSET	1	0	0
											}
										}
									}
								}
							}
						}
					}
				}
			}
		}
	}
	JOINT left_hip
	{
		OFFSET	-82.8	-127.5	0.300001
		CHANNELS 3  Xrotation Yrotation Zrotation
		JOINT left_knee
		{
			OFFSET	-28.2	-396.7	2.2
			CHANNELS 3  Xrotation Yrotation Zrotation
			JOINT left_ankle
			{
				OFFSET	-11.7	-411.3	35.4
				CHANNELS 3  Xrotation Yrotation Zrotation
				JOINT left_toes
				{
					OFFSET	0	-60	-88.6
					CHANNELS 3  Xrotation Yrotation Zrotation
					JOINT left_foot_ee
					{
						OFFSET	-22.5	-16.5	-42.2
						CHANNELS 3  Xrotation Yrotation Zrotation
						End Site
						{
							OFFSET	1	0	0
						}
					}
				}
			}
		}
	}
	JOINT right_hip
	{
		OFFSET	82.8	-127.5	0.300001
		CHANNELS 3  Xrotation Yrotation Zrotation
		JOINT right_knee
		{
			OFFSET	28.2	-396.7	2.2
			CHANNELS 3  Xrotation Yrotation Zrotation
			JOINT right_ankle
			{
				OFFSET	11.7	-411.3	35.4
				CHANNELS 3  Xrotation Yrotation Zrotation
				JOINT right_toes
				{
					OFFSET	0	-60	-88.6
					CHANNELS 3  Xrotation Yrotation Zrotation
					JOINT right_foot_ee
					{
						OFFSET	22.5	-16.5	-42.2
						CHANNELS 3  Xrotation Yrotation Zrotation
						End Site
						{
							OFFSET	1	0	0
						}
					}
				}
			}
		}
	}
}
MOTION
Frames: 5
Frame Time: 0.02
3164.23 784.198 -368.311 161.997 -48.2929 178.102 -1.88096 -1.01099 -5.1021 -1.86674 -0.684724 -5.15589 -1.78947 0.576524 -5.16908 -1.82665 -0.245933 -5.19524 -7.05332 7.32602 -0.858555 -7.0479 14.2332 0.636003 -0.0 0.0 -0.0 10.8256 19.7917 18.836 -2.20628 -10.8009 55.7735 2.64309 -52.6197 1.30704 -25.9157 -1.59245 2.87706 -0.351988 -3.37423 -3.79737 -0.0 0.0 -0.0 1.20256 25.5072 0.327285 -28.0404 11.4158 -74.8119 0.742096 20.184 -0.132082 -84.2102 8.35306 -5.2033 -4.74925 -19.7154 20.8676 0.0 0.0 0.0 -6.12225 -19.9894 -9.11649 -21.2904 0.27807 3.23658 38.167 26.0443 -5.02182 3.07844 -0.0 -0.0 -0.0 0.0 -0.0 6.16291 51.2619 -18.2257 0.797191 0.0336468 0.117705 24.749 -19.293 3.38284 -31.3718 0.0 0.0 0.0 0.0 0.0 
3166.96 785.125 -364.365 162.035 -48.6573 178.647 -2.04442 -1.10373 -5.10647 -2.03026 -0.776997 -5.16614 -1.94354 0.503086 -5.19987 -1.9811 -0.323301 -5.2141 -6.39364 7.37734 -1.12612 -6.37042 14.4874 0.297324 -0.0 0.0 -0.0 10.8557 19.9431 18.8561 -1.39746 -10.3957 56.0219 2.73175 -53.527 1.37792 -25.9978 -1.59949 2.88489 -0.44352 -4.2453 -4.78939 -0.0 0.0 -0.0 1.50299 25.4508 -0.330841 -28.1567 12.0196 -74.3194 0.757316 20.5636 -0.137381 -84.4201 8.37936 -5.19846 -4.69207 -19.3854 20.7245 0.0 0.0 0.0 -7.00736 -21.4284 -9.75008 -23.1592 0.244761 3.5214 39.7975 23.8255 -5.11169 3.05898 -0.0 -0.0 -0.0 0.0 -0.0 8.56754 51.5548 -19.2889 2.22119 0.0978203 0.326776 25.0357 -18.0726 3.40189 -31.2767 0.0 0.0 0.0 0.0 0.0 
3169.54 785.385 -365.951 162.796 -49.4552 178.819 -1.94015 -1.10661 -5.12502 -1.92588 -0.778703 -5.18483 -1.83907 0.496442 -5.21933 -1.87691 -0.332922 -5.23226 -8.63337 7.22068 -0.666448 -8.66337 13.9809 0.994424 -0.0 0.0 -0.0 10.1269 19.3426 17.7747 -1.45198 -12.9509 57.4063 2.77044 -53.911 1.40911 -26.0217 -1.60154 2.88717 -0.252504 -3.10546 -3.01218 -0.0 0.0 -0.0 1.4523 24.7205 -0.297916 -27.271 11.566 -73.7965 0.749224 20.362 -0.134552 -84.3722 8.37336 -5.19957 -4.67683 -20.1319 20.1159 0.0 0.0 0.0 -6.91118 -19.4914 -9.68634 -20.3506 0.291306 3.09298 38.9261 26.3432 -5.10789 2.45407 -0.0 -0.0 -0.0 0.0 -0.0 9.62001 50.8778 -18.4324 2.99763 0.134999 0.440097 25.2804 -21.0989 3.4728 -31.8112 0.0 0.0 0.0 0.0 0.0 
3174.1 781.571 -366.972 163.188 -50.2278 178.986 -1.92037 -1.12545 -5.18066 -1.9058 -0.793975 -5.24155 -1.81652 0.493215 -5.27824 -1.85521 -0.345374 -5.28994 -7.24894 7.24974 -0.644331 -7.24939 13.9481 0.857501 -0.0 0.0 -0.0 9.75811 19.0888 17.2155 -0.534172 -13.6898 59.4979 2.82954 -54.4843 1.45704 -25.7725 -1.58021 2.86339 -0.226344 -1.78809 -2.27358 -0.0 0.0 -0.0 0.70567 24.7055 1.32112 -26.0703 11.4974 -74.8612 0.809254 21.8448 -0.156168 -84.4212 8.3795 -5.19843 -4.57908 -19.2485 20.0877 0.0 0.0 0.0 -6.5339 -17.3767 -9.74497 -18.7808 0.308155 2.85271 40.0238 25.7191 -5.19417 2.66578 -0.0 -0.0 -0.0 0.0 -0.0 10.6013 51.2153 -18.5052 3.14973 0.142462 0.462238 21.6098 -20.6266 3.01303 -30.1937 0.0 0.0 0.0 0.0 0.0 
3178.82 780.829 -362.63 163.218 -51.3544 179.19 -1.90954 -1.08236 -5.08548 -1.89548 -0.757008 -5.14383 -1.8116 0.505165 -5.17455 -1.8488 -0.317265 -5.18942 -8.1087 6.96754 -1.52445 -8.11996 14.0852 0.025377 -0.0 0.0 -0.0 10.3432 19.0239 18.1837 -0.145761 -12.3942 59.5875 2.9422 -55.5344 1.54934 -26.1155 -1.60959 2.89609 -0.33113 -2.74878 -3.38865 -0.0 0.0 -0.0 1.09642 24.7161 0.473808 -26.4991 12.2057 -74.395 0.805218 21.746 -0.15467 -84.4971 8.389 -5.19666 -4.68353 -20.2563 20.0736 0.0 0.0 0.0 -6.66682 -19.172 -10.2772 -18.6592 0.309184 2.83409 39.6539 26.4815 -5.18458 2.48298 -0.0 -0.0 -0.0 0.0 -0.0 10.8335 51.6173 -19.119 3.63914 0.166876 0.533346 22.7561 -21.6541 3.17098 -31.0264 0.0 0.0 0.0 0.0 0.0 
